<svg width="20" height="21" viewBox="0 0 20 21" fill="none" xmlns="http://www.w3.org/2000/svg">
<path d="M9.99992 8.34155C9.08325 8.34155 8.33325 9.0923 8.33325 10.0099C8.33325 10.9275 9.08325 11.6782 9.99992 11.6782C10.9166 11.6782 11.6666 10.9275 11.6666 10.0099C11.6666 9.0923 10.9166 8.34155 9.99992 8.34155ZM14.9999 8.34155C14.0832 8.34155 13.3333 9.0923 13.3333 10.0099C13.3333 10.9275 14.0832 11.6782 14.9999 11.6782C15.9166 11.6782 16.6666 10.9275 16.6666 10.0099C16.6666 9.0923 15.9166 8.34155 14.9999 8.34155ZM4.99992 8.34155C4.08325 8.34155 3.33325 9.0923 3.33325 10.0099C3.33325 10.9275 4.08325 11.6782 4.99992 11.6782C5.91658 11.6782 6.66658 10.9275 6.66658 10.0099C6.66658 9.0923 5.91658 8.34155 4.99992 8.34155Z" fill="black"/>
</svg>
