<svg width="24" height="24" viewBox="0 0 24 24" fill="none" xmlns="http://www.w3.org/2000/svg">
<path fill-rule="evenodd" clip-rule="evenodd" d="M2 2.75949C2 2.34004 2.34875 2 2.77896 2H2.8526C4.07337 2 5.15919 2.75648 5.55472 3.88255L5.9321 4.95696H20.1817C21.3431 4.95696 22.2066 6.00445 21.9567 7.11032L20.8757 11.8955C20.3776 14.1005 18.3735 15.6709 16.0578 15.6709H9.57674C7.67071 15.6709 6.04469 14.3259 5.73403 12.4924L4.61752 5.90267L4.08083 4.37469C3.90105 3.86284 3.4075 3.51899 2.8526 3.51899H2.77896C2.34875 3.51899 2 3.17895 2 2.75949ZM6.29369 6.47595L7.27112 12.2448C7.45751 13.3449 8.43312 14.1519 9.57674 14.1519H16.0578C17.6422 14.1519 19.0134 13.0774 19.3543 11.5687L20.4353 6.78357C20.471 6.62559 20.3476 6.47595 20.1817 6.47595H6.29369Z" fill="#311F09"/>
<path fill-rule="evenodd" clip-rule="evenodd" d="M7.45271 15.6709C7.02251 15.6709 6.67376 16.0109 6.67376 16.4304C6.67376 16.8498 7.02251 17.1899 7.45271 17.1899H18.3581C18.7883 17.1899 19.1371 17.5299 19.1371 17.9494C19.1371 18.3688 18.7883 18.7089 18.3581 18.7089H7.45271C6.16209 18.7089 5.11584 17.6888 5.11584 16.4304C5.11584 15.172 6.16209 14.1519 7.45271 14.1519H10.0492C10.4795 14.1519 10.8282 14.4919 10.8282 14.9114C10.8282 15.3308 10.4795 15.6709 10.0492 15.6709H7.45271Z" fill="#311F09"/>
<path fill-rule="evenodd" clip-rule="evenodd" d="M7.97202 20.481C8.25883 20.481 8.49133 20.2543 8.49133 19.9747C8.49133 19.695 8.25883 19.4684 7.97202 19.4684C7.68522 19.4684 7.45271 19.695 7.45271 19.9747C7.45271 20.2543 7.68522 20.481 7.97202 20.481ZM7.97202 22C9.11924 22 10.0492 21.0932 10.0492 19.9747C10.0492 18.8561 9.11924 17.9494 7.97202 17.9494C6.8248 17.9494 5.8948 18.8561 5.8948 19.9747C5.8948 21.0932 6.8248 22 7.97202 22Z" fill="#311F09"/>
<path fill-rule="evenodd" clip-rule="evenodd" d="M16.2809 20.481C16.5677 20.481 16.8002 20.2543 16.8002 19.9747C16.8002 19.695 16.5677 19.4684 16.2809 19.4684C15.9941 19.4684 15.7616 19.695 15.7616 19.9747C15.7616 20.2543 15.9941 20.481 16.2809 20.481ZM16.2809 22C17.4281 22 18.3581 21.0932 18.3581 19.9747C18.3581 18.8561 17.4281 17.9494 16.2809 17.9494C15.1337 17.9494 14.2037 18.8561 14.2037 19.9747C14.2037 21.0932 15.1337 22 16.2809 22Z" fill="#311F09"/>
</svg>
